<svg width="396" height="82" viewBox="0 0 396 82" fill="none" xmlns="http://www.w3.org/2000/svg">
<path d="M34.4289 57.6795L35.7753 63.6827L18.2659 67.6096L16.9195 61.6064L34.4289 57.6795ZM13.1311 32.3313L20.9102 67.0166L13.1441 68.7583L5.36507 34.0731L13.1311 32.3313Z" fill="white"/>
<path d="M34.4289 57.6795L37.3562 57.023L36.6997 54.0957L33.7724 54.7522L34.4289 57.6795ZM35.7753 63.6827L36.4318 66.61L39.3591 65.9535L38.7026 63.0262L35.7753 63.6827ZM18.2659 67.6096L15.3386 68.2662L15.9952 71.1934L18.9224 70.5369L18.2659 67.6096ZM16.9195 61.6064L16.263 58.6791L13.3357 59.3357L13.9923 62.2629L16.9195 61.6064ZM13.1311 32.3313L16.0584 31.6748L15.4019 28.7475L12.4746 29.4041L13.1311 32.3313ZM20.9102 67.0166L21.5667 69.9439L24.494 69.2873L23.8375 66.3601L20.9102 67.0166ZM13.1441 68.7583L10.2168 69.4148L10.8734 72.3421L13.8007 71.6856L13.1441 68.7583ZM5.36507 34.0731L4.70855 31.1458L1.78127 31.8023L2.43779 34.7296L5.36507 34.0731ZM31.5016 58.336L32.848 64.3392L38.7026 63.0262L37.3562 57.023L31.5016 58.336ZM35.1188 60.7554L17.6094 64.6823L18.9224 70.5369L36.4318 66.61L35.1188 60.7554ZM21.1932 66.9531L19.8468 60.9499L13.9923 62.2629L15.3386 68.2662L21.1932 66.9531ZM17.5761 64.5337L35.0854 60.6068L33.7724 54.7522L16.263 58.6791L17.5761 64.5337ZM10.2039 32.9879L17.9829 67.6731L23.8375 66.3601L16.0584 31.6748L10.2039 32.9879ZM20.2537 64.0893L12.4876 65.831L13.8007 71.6856L21.5667 69.9439L20.2537 64.0893ZM16.0714 68.1018L8.29235 33.4166L2.43779 34.7296L10.2168 69.4148L16.0714 68.1018ZM6.02159 37.0004L13.7877 35.2586L12.4746 29.4041L4.70855 31.1458L6.02159 37.0004Z" fill="#F99F0C"/>
<path d="M57.117 60.1306C55.0511 60.5052 53.1419 60.5123 51.3893 60.1519C49.6367 59.7915 48.0874 59.1378 46.7412 58.1909C45.4082 57.2251 44.3075 56.0352 43.439 54.6212C42.5706 53.2073 41.9796 51.6355 41.666 49.9059L41.5005 48.993C41.1491 47.0552 41.0976 45.2202 41.3459 43.4879C41.5942 41.7557 42.1299 40.1946 42.9531 38.8048C43.7894 37.396 44.9167 36.2239 46.3351 35.2885C47.7506 34.3371 49.4432 33.6828 51.413 33.3256C53.2548 32.9917 54.9515 32.9983 56.5031 33.3455C58.0519 33.6767 59.4244 34.3128 60.6206 35.2538C61.8139 36.1788 62.8091 37.3796 63.6061 38.8561C64.4163 40.3137 64.9971 42.0115 65.3484 43.9493L65.906 47.0241L44.9585 50.8224L44.083 45.9939L57.6796 43.5285L57.5751 42.952C57.4096 42.0391 57.0962 41.2689 56.635 40.6412C56.1899 40.0106 55.6136 39.5693 54.9062 39.3171C54.2119 39.046 53.3844 38.9975 52.4235 39.1718C51.5106 39.3373 50.7848 39.6674 50.2459 40.1621C49.707 40.6568 49.3173 41.2899 49.0767 42.0613C48.8493 42.8139 48.7397 43.6691 48.7479 44.627C48.7533 45.5689 48.8518 46.5683 49.0435 47.6253L49.209 48.5381C49.3919 49.5471 49.695 50.4433 50.1183 51.2267C50.5416 52.0101 51.0712 52.6501 51.7071 53.1469C52.343 53.6436 53.0678 53.9919 53.8815 54.1917C54.6952 54.3915 55.5825 54.4043 56.5434 54.2301C57.7285 54.0152 58.8169 53.5863 59.8086 52.9433C60.7974 52.2843 61.5955 51.3952 62.2031 50.276L66.4378 53.6518C66.0487 54.5163 65.4391 55.396 64.6088 56.291C63.7917 57.1669 62.7592 57.9496 61.5113 58.6391C60.2634 59.3285 58.7986 59.8257 57.117 60.1306Z" fill="white"/>
<path d="M46.7412 58.1909L44.9811 60.6203L44.998 60.6326L45.0152 60.6447L46.7412 58.1909ZM41.3459 43.4879L38.3762 43.0623L41.3459 43.4879ZM42.9531 38.8048L40.3734 37.2734L40.3719 37.276L42.9531 38.8048ZM46.3351 35.2885L47.9867 37.7929L47.9977 37.7857L48.0086 37.7783L46.3351 35.2885ZM56.5031 33.3455L55.848 36.2731L55.8619 36.2762L55.8758 36.2792L56.5031 33.3455ZM60.6206 35.2538L58.7658 37.6117L58.7742 37.6183L58.7827 37.6249L60.6206 35.2538ZM63.6061 38.8561L60.9662 40.2812L60.975 40.2974L60.984 40.3136L63.6061 38.8561ZM65.906 47.0241L66.4412 49.976L69.3931 49.4407L68.8579 46.4889L65.906 47.0241ZM44.9585 50.8224L42.0066 51.3576L42.5419 54.3095L45.4938 53.7743L44.9585 50.8224ZM44.083 45.9939L43.5477 43.042L40.5959 43.5773L41.1311 46.5291L44.083 45.9939ZM57.6796 43.5285L58.2149 46.4804L61.1667 45.9451L60.6315 42.9933L57.6796 43.5285ZM56.635 40.6412L54.1843 42.3714L54.2006 42.3946L54.2175 42.4175L56.635 40.6412ZM54.9062 39.3171L53.815 42.1116L53.8567 42.1279L53.8988 42.1429L54.9062 39.3171ZM49.0767 42.0613L46.2127 41.1682L46.2088 41.1808L46.205 41.1933L49.0767 42.0613ZM48.7479 44.627L51.7479 44.6099L51.7478 44.6011L48.7479 44.627ZM53.8815 54.1917L53.166 57.1051L53.8815 54.1917ZM59.8086 52.9433L61.4406 55.4605L61.4565 55.4502L61.4723 55.4397L59.8086 52.9433ZM62.2031 50.276L64.0732 47.9302L61.2743 45.699L59.5666 48.8447L62.2031 50.276ZM66.4378 53.6518L69.1735 54.883L70.1298 52.7583L68.3079 51.3059L66.4378 53.6518ZM64.6088 56.291L66.8026 58.3373L66.8081 58.3313L64.6088 56.291ZM56.5818 57.1787C54.8287 57.4966 53.3115 57.4844 51.9936 57.2134L50.785 63.0904C52.9722 63.5402 55.2735 63.5138 57.6523 63.0825L56.5818 57.1787ZM51.9936 57.2134C50.6087 56.9286 49.4483 56.4272 48.4672 55.7372L45.0152 60.6447C46.7264 61.8484 48.6647 62.6544 50.785 63.0904L51.9936 57.2134ZM48.5014 55.7615C47.4903 55.029 46.6592 54.132 45.9954 53.0512L40.8827 56.1913C41.9558 57.9385 43.3261 59.4212 44.9811 60.6203L48.5014 55.7615ZM45.9954 53.0512C45.3333 51.9731 44.869 50.7557 44.6179 49.3706L38.7141 50.4411C39.0902 52.5152 39.808 54.4414 40.8827 56.1913L45.9954 53.0512ZM44.6179 49.3706L44.4523 48.4578L38.5486 49.5283L38.7141 50.4411L44.6179 49.3706ZM44.4523 48.4578C44.1514 46.7979 44.1183 45.2894 44.3155 43.9136L38.3762 43.0623C38.0768 45.151 38.1468 47.3125 38.5486 49.5283L44.4523 48.4578ZM44.3155 43.9136C44.5127 42.5383 44.9279 41.3574 45.5343 40.3335L40.3719 37.276C39.3319 39.0318 38.6757 40.9731 38.3762 43.0623L44.3155 43.9136ZM45.5328 40.3361C46.1287 39.3324 46.9329 38.4879 47.9867 37.7929L44.6835 32.7841C42.9006 33.9599 41.4501 35.4596 40.3734 37.2734L45.5328 40.3361ZM48.0086 37.7783C49.0261 37.0944 50.3158 36.5735 51.9483 36.2775L50.8778 30.3738C48.5707 30.7921 46.475 31.5798 44.6616 32.7987L48.0086 37.7783ZM51.9483 36.2775C53.4644 36.0026 54.7505 36.0275 55.848 36.2731L57.1582 30.4179C55.1525 29.9691 53.0451 29.9808 50.8778 30.3738L51.9483 36.2775ZM55.8758 36.2792C56.9956 36.5187 57.9442 36.9654 58.7658 37.6117L62.4755 32.896C60.9046 31.6603 59.1083 30.8348 57.1305 30.4119L55.8758 36.2792ZM58.7827 37.6249C59.6106 38.2667 60.3455 39.1313 60.9662 40.2812L66.2461 37.4311C65.2727 35.6279 64.0172 34.091 62.4586 32.8828L58.7827 37.6249ZM60.984 40.3136C61.6085 41.4373 62.0935 42.8131 62.3966 44.4845L68.3003 43.414C67.9006 41.2099 67.2241 39.1902 66.2283 37.3987L60.984 40.3136ZM62.3966 44.4845L62.9541 47.5594L68.8579 46.4889L68.3003 43.414L62.3966 44.4845ZM65.3708 44.0723L44.4233 47.8705L45.4938 53.7743L66.4412 49.976L65.3708 44.0723ZM47.9104 50.2872L47.0349 45.4587L41.1311 46.5291L42.0066 51.3576L47.9104 50.2872ZM44.6182 48.9458L58.2149 46.4804L57.1444 40.5766L43.5477 43.042L44.6182 48.9458ZM60.6315 42.9933L60.527 42.4167L54.6232 43.4872L54.7278 44.0638L60.6315 42.9933ZM60.527 42.4167C60.2954 41.1399 59.8308 39.924 59.0526 38.8649L54.2175 42.4175C54.3616 42.6137 54.5237 42.9383 54.6232 43.4872L60.527 42.4167ZM59.0858 38.911C58.2946 37.7902 57.2206 36.9572 55.9136 36.4913L53.8988 42.1429C54.0066 42.1813 54.0852 42.2311 54.1843 42.3714L59.0858 38.911ZM55.9974 36.5226C54.6488 35.996 53.2296 35.9767 51.8882 36.2199L52.9587 42.1236C53.5391 42.0184 53.7751 42.096 53.815 42.1116L55.9974 36.5226ZM51.8882 36.2199C50.5658 36.4597 49.2724 36.9834 48.2171 37.9522L52.2747 42.3721C52.2971 42.3515 52.4554 42.2149 52.9587 42.1236L51.8882 36.2199ZM48.2171 37.9522C47.2488 38.8411 46.5938 39.9461 46.2127 41.1682L51.9407 42.9545C52.0407 42.6337 52.1652 42.4726 52.2747 42.3721L48.2171 37.9522ZM46.205 41.1933C45.8733 42.2909 45.7377 43.4559 45.7481 44.6529L51.7478 44.6011C51.7416 43.8822 51.8252 43.3369 51.9484 42.9293L46.205 41.1933ZM45.748 44.6441C45.7545 45.7819 45.8732 46.9559 46.0916 48.1605L51.9953 47.09C51.8305 46.1807 51.7521 45.3558 51.7479 44.6099L45.748 44.6441ZM46.0916 48.1605L46.2571 49.0734L52.1609 48.0029L51.9953 47.09L46.0916 48.1605ZM46.2571 49.0734C46.4882 50.3476 46.8843 51.5521 47.4789 52.6527L52.7577 49.8007C52.5058 49.3344 52.2957 48.7466 52.1609 48.0029L46.2571 49.0734ZM47.4789 52.6527C48.0784 53.7623 48.866 54.7344 49.8604 55.5111L53.5538 50.7826C53.2763 50.5658 53.0047 50.2579 52.7577 49.8007L47.4789 52.6527ZM49.8604 55.5111C50.8432 56.2788 51.9569 56.8082 53.166 57.1051L54.597 51.2783C54.1788 51.1756 53.8428 51.0084 53.5538 50.7826L49.8604 55.5111ZM53.166 57.1051C54.4515 57.4208 55.7708 57.4191 57.0786 57.1819L56.0081 51.2782C55.3941 51.3896 54.9389 51.3622 54.597 51.2783L53.166 57.1051ZM57.0786 57.1819C58.6469 56.8976 60.1093 56.3237 61.4406 55.4605L58.1765 50.4261C57.5245 50.8488 56.8101 51.1328 56.0081 51.2782L57.0786 57.1819ZM61.4723 55.4397C62.8961 54.4908 64.0164 53.2238 64.8397 51.7073L59.5666 48.8447C59.1747 49.5666 58.6987 50.0778 58.1448 50.4469L61.4723 55.4397ZM60.3331 52.6218L64.5678 55.9976L68.3079 51.3059L64.0732 47.9302L60.3331 52.6218ZM63.7021 52.4205C63.4788 52.9167 63.0786 53.5294 62.4095 54.2506L66.8081 58.3313C67.7995 57.2627 68.6186 56.116 69.1735 54.883L63.7021 52.4205ZM62.4151 54.2446C61.85 54.8504 61.0829 55.4484 60.0606 56.0132L62.962 61.265C64.4355 60.4509 65.7334 59.4835 66.8026 58.3373L62.4151 54.2446ZM60.0606 56.0132C59.1483 56.5172 58.0043 56.9208 56.5818 57.1787L57.6523 63.0825C59.5929 62.7306 61.3784 62.1399 62.962 61.265L60.0606 56.0132Z" fill="#F99F0C"/>
<path d="M81.8893 34.4005L84.5564 55.1035L77.0017 56.0768L73.6264 29.8773L80.7211 28.9633L81.8893 34.4005ZM81.7817 41.2084L79.875 41.5032C79.6379 39.663 79.6385 37.948 79.8768 36.3583C80.1292 34.7504 80.6093 33.3182 81.3172 32.0619C82.0251 30.8055 82.9681 29.7815 84.1461 28.9897C85.3402 28.1959 86.7687 27.6918 88.4313 27.4776C89.5936 27.3279 90.6738 27.3692 91.672 27.6017C92.6681 27.818 93.553 28.2537 94.3266 28.9089C95.1143 29.5459 95.7697 30.4297 96.2928 31.5603C96.8139 32.6747 97.1794 34.0471 97.3894 35.6776L99.6417 53.16L92.087 54.1333L89.9532 37.571C89.8035 36.4087 89.5449 35.5476 89.1773 34.9878C88.8239 34.4097 88.3663 34.042 87.8044 33.8846C87.2426 33.7273 86.5904 33.6964 85.8479 33.7921C85.0407 33.8961 84.3453 34.1662 83.7614 34.6024C83.1917 35.0205 82.7365 35.5632 82.3958 36.2307C82.0551 36.8982 81.8329 37.6571 81.7291 38.5074C81.6414 39.3556 81.659 40.256 81.7817 41.2084ZM97.0108 38.8525L94.6385 39.3551C94.4098 37.5794 94.4075 35.9058 94.6317 34.3343C94.8559 32.7629 95.316 31.3661 96.0119 30.1441C96.7058 28.906 97.6336 27.8921 98.7955 27.1024C99.9735 26.3106 101.394 25.8076 103.057 25.5934C104.283 25.4354 105.42 25.4695 106.467 25.6957C107.529 25.9198 108.475 26.3805 109.303 27.0779C110.148 27.7733 110.855 28.7406 111.425 29.98C111.993 31.2033 112.396 32.7432 112.635 34.5996L114.775 51.2103L107.172 52.1899L105.032 35.5791C104.885 34.433 104.627 33.58 104.26 33.0201C103.908 32.4582 103.452 32.0986 102.89 31.9412C102.344 31.7818 101.708 31.7488 100.982 31.8424C100.174 31.9464 99.4941 32.2064 98.9405 32.6223C98.3848 33.0221 97.9426 33.5386 97.6139 34.1717C97.2831 34.7887 97.0708 35.4971 96.9769 36.2969C96.883 37.0967 96.8943 37.9486 97.0108 38.8525Z" fill="white"/>
<path d="M81.8893 34.4005L84.8647 34.0172L84.8486 33.8929L84.8223 33.7704L81.8893 34.4005ZM84.5564 55.1035L84.9397 58.0789L87.9152 57.6956L87.5318 54.7201L84.5564 55.1035ZM77.0017 56.0768L74.0263 56.4601L74.4096 59.4355L77.385 59.0522L77.0017 56.0768ZM73.6264 29.8773L73.243 26.9019L70.2676 27.2852L70.651 30.2606L73.6264 29.8773ZM80.7211 28.9633L83.6541 28.3331L83.0745 25.6353L80.3377 25.9878L80.7211 28.9633ZM81.7817 41.2084L82.2402 44.1731L85.1308 43.7261L84.7571 40.8251L81.7817 41.2084ZM79.875 41.5032L76.8996 41.8866L77.2928 44.9383L80.3335 44.468L79.875 41.5032ZM79.8768 36.3583L76.9131 35.8932L76.9115 35.9034L76.91 35.9136L79.8768 36.3583ZM84.1461 28.9897L82.4852 26.4914L82.4789 26.4956L82.4726 26.4998L84.1461 28.9897ZM91.672 27.6017L90.9916 30.5235L91.0135 30.5286L91.0354 30.5333L91.672 27.6017ZM94.3266 28.9089L92.3878 31.1982L92.4138 31.2202L92.4402 31.2417L94.3266 28.9089ZM96.2928 31.5603L93.5701 32.82L93.5752 32.8308L96.2928 31.5603ZM99.6417 53.16L100.025 56.1354L103 55.7521L102.617 52.7767L99.6417 53.16ZM92.087 54.1333L89.1116 54.5166L89.4949 57.492L92.4703 57.1087L92.087 54.1333ZM89.1773 34.9878L86.6179 36.5528L86.643 36.5939L86.6694 36.6341L89.1773 34.9878ZM83.7614 34.6024L85.5361 37.0212L85.5467 37.0135L85.5572 37.0056L83.7614 34.6024ZM81.7291 38.5074L78.7512 38.1439L78.7478 38.1715L78.745 38.1991L81.7291 38.5074ZM97.0108 38.8525L97.6325 41.7874L100.34 41.2139L99.9862 38.4692L97.0108 38.8525ZM94.6385 39.3551L91.6631 39.7384L92.0787 42.964L95.2603 42.29L94.6385 39.3551ZM96.0119 30.1441L98.6188 31.6288L98.6239 31.6198L98.629 31.6107L96.0119 30.1441ZM98.7955 27.1024L97.122 24.6125L97.1156 24.6169L97.1091 24.6213L98.7955 27.1024ZM106.467 25.6957L105.833 28.6279L105.84 28.6295L105.848 28.6311L106.467 25.6957ZM109.303 27.0779L107.371 29.3728L107.384 29.3834L107.396 29.3939L109.303 27.0779ZM111.425 29.98L108.699 31.2334L108.704 31.2432L111.425 29.98ZM114.775 51.2103L115.159 54.1857L118.134 53.8024L117.751 50.827L114.775 51.2103ZM107.172 52.1899L104.197 52.5732L104.58 55.5486L107.556 55.1653L107.172 52.1899ZM104.26 33.0201L101.716 34.6107L101.733 34.6388L101.752 34.6665L104.26 33.0201ZM102.89 31.9412L102.048 34.8208L102.064 34.8255L102.081 34.83L102.89 31.9412ZM98.9405 32.6223L100.693 35.0575L100.718 35.0394L100.743 35.0208L98.9405 32.6223ZM97.6139 34.1717L100.258 35.5892L100.267 35.5717L100.276 35.554L97.6139 34.1717ZM78.9138 34.7839L81.581 55.4868L87.5318 54.7201L84.8647 34.0172L78.9138 34.7839ZM84.1731 52.1281L76.6183 53.1013L77.385 59.0522L84.9397 58.0789L84.1731 52.1281ZM79.9771 55.6934L76.6018 29.4939L70.651 30.2606L74.0263 56.4601L79.9771 55.6934ZM74.0097 32.8527L81.1044 31.9387L80.3377 25.9878L73.243 26.9019L74.0097 32.8527ZM77.788 29.5934L78.9562 35.0307L84.8223 33.7704L83.6541 28.3331L77.788 29.5934ZM81.3232 38.2436L79.4165 38.5385L80.3335 44.468L82.2402 44.1731L81.3232 38.2436ZM82.8504 41.1199C82.6434 39.5133 82.6523 38.08 82.8437 36.803L76.91 35.9136C76.6248 37.816 76.6324 39.8126 76.8996 41.8866L82.8504 41.1199ZM82.8405 36.8234C83.0444 35.5244 83.42 34.4412 83.9308 33.5346L78.7035 30.5892C77.7986 32.1953 77.2139 33.9764 76.9131 35.8932L82.8405 36.8234ZM83.9308 33.5346C84.4128 32.6792 85.0364 32.006 85.8196 31.4796L82.4726 26.4998C80.8997 27.557 79.6374 28.9319 78.7035 30.5892L83.9308 33.5346ZM85.8069 31.488C86.5577 30.9889 87.5318 30.6183 88.8147 30.453L88.048 24.5022C86.0055 24.7653 84.1228 25.4028 82.4852 26.4914L85.8069 31.488ZM88.8147 30.453C89.6723 30.3425 90.3882 30.383 90.9916 30.5235L92.3524 24.6798C90.9595 24.3555 89.5149 24.3132 88.048 24.5022L88.8147 30.453ZM91.0354 30.5333C91.5541 30.646 91.9912 30.8623 92.3878 31.1982L96.2655 26.6196C95.1148 25.6451 93.7821 24.99 92.3086 24.67L91.0354 30.5333ZM92.4402 31.2417C92.7981 31.531 93.1965 32.0125 93.5701 32.82L99.0155 30.3006C98.343 28.847 97.4306 27.5608 96.213 26.5762L92.4402 31.2417ZM93.5752 32.8308C93.9293 33.5883 94.2311 34.6412 94.414 36.0609L100.365 35.2942C100.128 33.4531 99.6984 31.7612 99.0105 30.2897L93.5752 32.8308ZM94.414 36.0609L96.6663 53.5433L102.617 52.7767L100.365 35.2942L94.414 36.0609ZM99.2584 50.1846L91.7036 51.1579L92.4703 57.1087L100.025 56.1354L99.2584 50.1846ZM95.0624 53.75L92.9286 37.1876L86.9778 37.9543L89.1116 54.5166L95.0624 53.75ZM92.9286 37.1876C92.7582 35.8643 92.4243 34.4672 91.6852 33.3415L86.6694 36.6341C86.6505 36.6053 86.7012 36.6749 86.7738 36.9165C86.8443 37.1514 86.918 37.4897 86.9778 37.9543L92.9286 37.1876ZM91.7368 33.4228C91.0563 32.3098 90.0219 31.3903 88.6136 30.9958L86.9953 36.7735C86.8836 36.7422 86.7749 36.6853 86.6899 36.6171C86.611 36.5536 86.5943 36.5142 86.6179 36.5528L91.7368 33.4228ZM88.6136 30.9958C87.5711 30.7038 86.498 30.6835 85.4645 30.8167L86.2312 36.7675C86.6829 36.7093 86.9141 36.7507 86.9953 36.7735L88.6136 30.9958ZM85.4645 30.8167C84.2062 30.9788 83.0098 31.419 81.9657 32.1993L85.5572 37.0056C85.6807 36.9133 85.8753 36.8134 86.2312 36.7675L85.4645 30.8167ZM81.9868 32.1836C81.017 32.8952 80.2639 33.8084 79.7237 34.8669L85.0679 37.5945C85.209 37.318 85.3665 37.1457 85.5361 37.0212L81.9868 32.1836ZM79.7237 34.8669C79.2022 35.8887 78.8916 36.9941 78.7512 38.1439L84.707 38.8709C84.7742 38.3201 84.908 37.9077 85.0679 37.5945L79.7237 34.8669ZM78.745 38.1991C78.6308 39.3042 78.6577 40.4381 78.8063 41.5917L84.7571 40.8251C84.6603 40.0738 84.6521 39.4071 84.7132 38.8158L78.745 38.1991ZM96.389 35.9177L94.0168 36.4202L95.2603 42.29L97.6325 41.7874L96.389 35.9177ZM97.6139 38.9718C97.4154 37.4305 97.4201 36.0304 97.6016 34.7581L91.6618 33.9106C91.3949 35.7812 91.4042 37.7283 91.6631 39.7384L97.6139 38.9718ZM97.6016 34.7581C97.7794 33.5121 98.132 32.4836 98.6188 31.6288L93.405 28.6595C92.5 30.2487 91.9325 32.0136 91.6618 33.9106L97.6016 34.7581ZM98.629 31.6107C99.0979 30.774 99.7088 30.109 100.482 29.5836L97.1091 24.6213C95.5585 25.6752 94.3137 27.038 93.3949 28.6775L98.629 31.6107ZM100.469 29.5923C101.196 29.1034 102.156 28.7343 103.44 28.5688L102.673 22.618C100.632 22.881 98.7506 23.5179 97.122 24.6125L100.469 29.5923ZM103.44 28.5688C104.379 28.4478 105.168 28.4842 105.833 28.6279L107.1 22.7634C105.672 22.4547 104.187 22.423 102.673 22.618L103.44 28.5688ZM105.848 28.6311C106.428 28.7535 106.922 28.9949 107.371 29.3728L111.236 24.783C110.028 23.7661 108.631 23.086 107.086 22.7602L105.848 28.6311ZM107.396 29.3939C107.816 29.7392 108.273 30.3063 108.699 31.2334L114.151 28.7267C113.437 27.175 112.48 25.8073 111.21 24.762L107.396 29.3939ZM108.704 31.2432C109.103 32.1034 109.446 33.3222 109.66 34.9829L115.611 34.2162C115.346 32.1641 114.882 30.3033 114.146 28.7169L108.704 31.2432ZM109.66 34.9829L111.8 51.5937L117.751 50.827L115.611 34.2162L109.66 34.9829ZM114.392 48.2349L106.789 49.2144L107.556 55.1653L115.159 54.1857L114.392 48.2349ZM110.148 51.8065L108.008 35.1958L102.057 35.9624L104.197 52.5732L110.148 51.8065ZM108.008 35.1958C107.838 33.8809 107.504 32.4959 106.767 31.3738L101.752 34.6665C101.735 34.6411 101.785 34.7113 101.856 34.947C101.926 35.1769 101.998 35.5079 102.057 35.9624L108.008 35.1958ZM106.803 31.4296C106.113 30.3264 105.079 29.4389 103.699 29.0524L102.081 34.83C101.982 34.8025 101.881 34.7514 101.797 34.6857C101.719 34.6239 101.698 34.5822 101.716 34.6107L106.803 31.4296ZM103.731 29.0616C102.691 28.7578 101.622 28.7352 100.598 28.867L101.365 34.8178C101.794 34.7625 101.997 34.8057 102.048 34.8208L103.731 29.0616ZM100.598 28.867C99.367 29.0256 98.1746 29.4454 97.1384 30.2238L100.743 35.0208C100.814 34.9674 100.982 34.8672 101.365 34.8178L100.598 28.867ZM97.1884 30.1871C96.2346 30.8733 95.4874 31.7569 94.9513 32.7894L100.276 35.554C100.398 35.3202 100.535 35.1709 100.693 35.0575L97.1884 30.1871ZM94.9699 32.7542C94.4367 33.7488 94.1286 34.829 93.9974 35.9471L99.9564 36.6466C100.013 36.1651 100.13 35.8285 100.258 35.5892L94.9699 32.7542ZM93.9974 35.9471C93.8714 37.02 93.8916 38.12 94.0354 39.2359L99.9862 38.4692C99.897 37.7771 99.8946 37.1733 99.9564 36.6466L93.9974 35.9471Z" fill="#F99F0C"/>
<path d="M123.256 37.4834L123.217 36.9722C123.07 35.041 123.21 33.2429 123.638 31.5779C124.064 29.8966 124.767 28.4146 125.747 27.1318C126.726 25.8491 127.969 24.8155 129.476 24.0311C130.982 23.2305 132.741 22.7533 134.754 22.5995C136.798 22.4433 138.626 22.6465 140.236 23.2091C141.861 23.7542 143.255 24.5863 144.418 25.7054C145.581 26.8245 146.5 28.1825 147.177 29.7795C147.853 31.3602 148.265 33.1162 148.412 35.0474L148.452 35.5586C148.598 37.4736 148.458 39.2717 148.031 40.953C147.603 42.618 146.9 44.1 145.922 45.399C144.943 46.6817 143.7 47.7153 142.193 48.4997C140.685 49.2841 138.918 49.7538 136.889 49.9088C134.877 50.0625 133.058 49.8669 131.433 49.3217C129.808 48.7766 128.414 47.9445 127.251 46.8254C126.087 45.6901 125.167 44.3321 124.491 42.7514C123.814 41.1544 123.403 39.3984 123.256 37.4834ZM130.837 36.3901L130.876 36.9013C130.955 37.94 131.111 38.9075 131.342 39.8039C131.59 40.6991 131.935 41.4726 132.377 42.1244C132.818 42.7763 133.37 43.2728 134.033 43.6139C134.711 43.9376 135.512 44.0641 136.437 43.9934C137.362 43.9228 138.127 43.6766 138.731 43.255C139.334 42.8172 139.805 42.2425 140.142 41.5312C140.48 40.8198 140.695 40.0035 140.788 39.0823C140.897 38.1599 140.911 37.1793 140.832 36.1407L140.793 35.6295C140.715 34.6071 140.553 33.6564 140.306 32.7775C140.074 31.881 139.737 31.0988 139.294 30.4307C138.851 29.7626 138.29 29.2587 137.611 28.9188C136.949 28.5776 136.147 28.443 135.206 28.5149C134.297 28.5843 133.541 28.838 132.938 29.2758C132.334 29.7137 131.865 30.2964 131.529 31.024C131.192 31.7516 130.97 32.5766 130.861 33.499C130.767 34.404 130.759 35.3677 130.837 36.3901Z" fill="white"/>
<path d="M123.638 31.5779L126.543 32.3244L126.546 32.3156L123.638 31.5779ZM129.476 24.0311L130.861 26.6922L130.873 26.6862L130.885 26.68L129.476 24.0311ZM140.236 23.2091L139.246 26.0412L139.264 26.0474L139.282 26.0533L140.236 23.2091ZM147.177 29.7795L144.415 30.9504L144.419 30.9587L147.177 29.7795ZM148.031 40.953L150.937 41.6995L150.939 41.6907L148.031 40.953ZM145.922 45.399L148.307 47.2195L148.313 47.2115L148.319 47.2036L145.922 45.399ZM131.433 49.3217L130.479 52.166L131.433 49.3217ZM127.251 46.8254L125.156 48.9731L125.164 48.9801L125.171 48.987L127.251 46.8254ZM124.491 42.7514L121.729 43.9223L121.733 43.9306L124.491 42.7514ZM131.342 39.8039L128.438 40.5547L128.444 40.5798L128.451 40.6047L131.342 39.8039ZM134.033 43.6139L132.66 46.2813L132.7 46.3017L132.74 46.321L134.033 43.6139ZM138.731 43.255L140.448 45.7155L140.471 45.6994L140.494 45.6828L138.731 43.255ZM140.788 39.0823L137.808 38.73L137.805 38.7557L137.803 38.7815L140.788 39.0823ZM140.306 32.7775L137.401 33.5283L137.409 33.5583L137.417 33.5882L140.306 32.7775ZM137.611 28.9188L136.238 31.5861L136.253 31.5938L136.268 31.6013L137.611 28.9188ZM130.861 33.499L127.881 33.1467L127.879 33.1677L127.877 33.1888L130.861 33.499ZM126.248 37.2549L126.209 36.7437L120.226 37.2008L120.265 37.712L126.248 37.2549ZM126.209 36.7437C126.083 35.099 126.207 33.6338 126.543 32.3244L120.732 30.8313C120.213 32.852 120.057 34.983 120.226 37.2008L126.209 36.7437ZM126.546 32.3156C126.88 30.9972 127.415 29.8897 128.131 28.9523L123.362 25.3113C122.119 26.9395 121.248 28.796 120.73 30.8401L126.546 32.3156ZM128.131 28.9523C128.829 28.0382 129.724 27.2842 130.861 26.6922L128.091 21.37C126.214 22.3468 124.623 23.6599 123.362 25.3113L128.131 28.9523ZM130.885 26.68C131.964 26.1059 133.308 25.7187 134.982 25.5908L134.525 19.6083C132.175 19.7878 130 20.355 128.068 21.3822L130.885 26.68ZM134.982 25.5908C136.696 25.4599 138.098 25.6398 139.246 26.0412L141.226 20.377C139.154 19.6532 136.901 19.4268 134.525 19.6083L134.982 25.5908ZM139.282 26.0533C140.512 26.4661 141.514 27.075 142.337 27.867L146.498 23.5438C144.995 22.0976 143.21 21.0423 141.19 20.3648L139.282 26.0533ZM142.337 27.867C143.187 28.6848 143.885 29.6981 144.415 30.9504L149.94 28.6085C149.116 26.6669 147.974 24.9642 146.498 23.5438L142.337 27.867ZM144.419 30.9587C144.95 32.2018 145.296 33.6312 145.421 35.2759L151.404 34.8189C151.234 32.6011 150.756 30.5186 149.936 28.6002L144.419 30.9587ZM145.421 35.2759L145.46 35.7871L151.443 35.3301L151.404 34.8189L145.421 35.2759ZM145.46 35.7871C145.584 37.4122 145.462 38.8813 145.123 40.2152L150.939 41.6907C151.454 39.6621 151.611 37.535 151.443 35.3301L145.46 35.7871ZM145.125 40.2064C144.79 41.5109 144.253 42.629 143.526 43.5944L148.319 47.2036C149.548 45.571 150.416 43.7251 150.937 41.6995L145.125 40.2064ZM143.538 43.5785C142.84 44.4926 141.945 45.2466 140.808 45.8386L143.578 51.1609C145.454 50.184 147.046 48.8709 148.307 47.2195L143.538 43.5785ZM140.808 45.8386C139.723 46.4029 138.363 46.7874 136.66 46.9175L137.118 52.9001C139.472 52.7202 141.648 52.1653 143.578 51.1609L140.808 45.8386ZM136.66 46.9175C134.978 47.046 133.57 46.8744 132.387 46.4775L130.479 52.166C132.546 52.8593 134.775 53.079 137.118 52.9001L136.66 46.9175ZM132.387 46.4775C131.157 46.0648 130.154 45.4558 129.331 44.6638L125.171 48.987C126.674 50.4332 128.459 51.4885 130.479 52.166L132.387 46.4775ZM129.346 44.6777C128.481 43.8339 127.779 42.8105 127.25 41.5721L121.733 43.9306C122.555 45.8536 123.693 47.5463 125.156 48.9731L129.346 44.6777ZM127.253 41.5804C126.716 40.3134 126.372 38.88 126.248 37.2549L120.265 37.712C120.434 39.9169 120.912 41.9954 121.729 43.9223L127.253 41.5804ZM127.845 36.6187L127.884 37.1299L133.867 36.6728L133.828 36.1616L127.845 36.6187ZM127.884 37.1299C127.976 38.3233 128.157 39.4674 128.438 40.5547L134.247 39.0531C134.065 38.3476 133.935 37.5566 133.867 36.6728L127.884 37.1299ZM128.451 40.6047C128.771 41.7589 129.239 42.8418 129.893 43.807L134.86 40.4419C134.631 40.1034 134.41 39.6392 134.234 39.0031L128.451 40.6047ZM129.893 43.807C130.6 44.8507 131.525 45.697 132.66 46.2813L135.406 40.9466C135.216 40.8486 135.037 40.7019 134.86 40.4419L129.893 43.807ZM132.74 46.321C133.991 46.9184 135.339 47.086 136.666 46.9847L136.209 41.0021C135.685 41.0422 135.431 40.9568 135.326 40.9069L132.74 46.321ZM136.666 46.9847C137.988 46.8836 139.303 46.5137 140.448 45.7155L137.015 40.7945C136.95 40.8395 136.736 40.9619 136.209 41.0021L136.666 46.9847ZM140.494 45.6828C141.527 44.9329 142.312 43.9559 142.853 42.8169L137.432 40.2455C137.297 40.5292 137.142 40.7014 136.969 40.8272L140.494 45.6828ZM142.853 42.8169C143.361 41.7461 143.651 40.5872 143.772 39.3832L137.803 38.7815C137.738 39.4199 137.599 39.8935 137.432 40.2455L142.853 42.8169ZM143.767 39.4346C143.901 38.2978 143.916 37.1214 143.823 35.9122L137.841 36.3692C137.907 37.2373 137.892 38.0219 137.808 38.73L143.767 39.4346ZM143.823 35.9122L143.784 35.401L137.802 35.858L137.841 36.3692L143.823 35.9122ZM143.784 35.401C143.693 34.2053 143.5 33.0575 143.194 31.9667L137.417 33.5882C137.605 34.2553 137.737 35.0089 137.802 35.858L143.784 35.401ZM143.21 32.0266C142.908 30.8568 142.448 29.7584 141.795 28.7733L136.793 32.0881C137.026 32.4392 137.24 32.9053 137.401 33.5283L143.21 32.0266ZM141.795 28.7733C141.079 27.6935 140.129 26.824 138.955 26.2362L136.268 31.6013C136.452 31.6933 136.624 31.8318 136.793 32.0881L141.795 28.7733ZM138.985 26.2514C137.713 25.5966 136.326 25.4206 134.977 25.5236L135.434 31.5062C135.968 31.4654 136.185 31.5586 136.238 31.5861L138.985 26.2514ZM134.977 25.5236C133.638 25.6259 132.318 26.0183 131.175 26.848L134.7 31.7036C134.763 31.6577 134.955 31.5428 135.434 31.5062L134.977 25.5236ZM131.175 26.848C130.126 27.6097 129.34 28.6087 128.805 29.7657L134.252 32.2823C134.39 31.9841 134.543 31.8176 134.7 31.7036L131.175 26.848ZM128.805 29.7657C128.317 30.8213 128.022 31.9595 127.881 33.1467L133.84 33.8514C133.918 33.1937 134.067 32.6818 134.252 32.2823L128.805 29.7657ZM127.877 33.1888C127.762 34.2936 127.755 35.439 127.845 36.6187L133.828 36.1616C133.762 35.2964 133.771 34.5144 133.845 33.8093L127.877 33.1888Z" fill="#F99F0C"/>
<path d="M165.779 26.9219L166.48 47.6864L158.843 47.9443L157.952 21.5433L165.125 21.3011L165.779 26.9219ZM165.003 33.5925L163.101 33.7056C163.034 31.721 163.218 29.9316 163.653 28.3372C164.088 26.7429 164.734 25.3775 165.591 24.2412C166.464 23.088 167.517 22.1975 168.75 21.5696C169.999 20.9411 171.388 20.6011 172.917 20.5495C174.153 20.5077 175.29 20.6485 176.326 20.9718C177.363 21.2951 178.261 21.8429 179.02 22.6152C179.795 23.3708 180.399 24.3926 180.834 25.6808C181.267 26.9527 181.516 28.5321 181.58 30.419L182.145 47.1575L174.483 47.4162L173.917 30.6533C173.88 29.5472 173.697 28.6984 173.367 28.1069C173.038 27.5155 172.568 27.108 171.958 26.8843C171.364 26.66 170.644 26.5622 169.799 26.5908C168.904 26.621 168.145 26.8257 167.523 27.205C166.9 27.568 166.396 28.0655 166.01 28.6973C165.624 29.3292 165.348 30.0632 165.181 30.8994C165.03 31.7351 164.97 32.6328 165.003 33.5925Z" fill="white"/>
<path d="M165.779 26.9219L168.777 26.8207L168.773 26.6976L168.759 26.5752L165.779 26.9219ZM166.48 47.6864L166.581 50.6847L169.58 50.5835L169.478 47.5852L166.48 47.6864ZM158.843 47.9443L155.845 48.0455L155.946 51.0438L158.944 50.9426L158.843 47.9443ZM157.952 21.5433L157.85 18.545L154.852 18.6463L154.953 21.6445L157.952 21.5433ZM165.125 21.3011L168.105 20.9544L167.786 18.2096L165.024 18.3028L165.125 21.3011ZM165.003 33.5925L165.181 36.5872L168.1 36.4137L168.001 33.4913L165.003 33.5925ZM163.101 33.7056L160.103 33.8068L160.207 36.883L163.279 36.7003L163.101 33.7056ZM165.591 24.2412L163.199 22.4303L163.196 22.4344L165.591 24.2412ZM168.75 21.5696L167.401 18.8897L167.395 18.893L167.388 18.8964L168.75 21.5696ZM179.02 22.6152L176.88 24.7178L176.903 24.7406L176.926 24.7628L179.02 22.6152ZM180.834 25.6808L177.991 26.6393L177.994 26.6492L180.834 25.6808ZM182.145 47.1575L182.246 50.1558L185.245 50.0546L185.143 47.0563L182.145 47.1575ZM174.483 47.4162L171.485 47.5175L171.586 50.5157L174.585 50.4145L174.483 47.4162ZM171.958 26.8843L170.898 29.6909L170.912 29.696L170.925 29.7009L171.958 26.8843ZM167.523 27.205L169.034 29.7969L169.059 29.7821L169.084 29.7667L167.523 27.205ZM165.181 30.8994L162.239 30.3113L162.233 30.3387L162.228 30.3662L165.181 30.8994ZM162.781 27.0231L163.482 47.7877L169.478 47.5852L168.777 26.8207L162.781 27.0231ZM166.379 44.6881L158.742 44.946L158.944 50.9426L166.581 50.6847L166.379 44.6881ZM161.841 47.8431L160.95 21.4421L154.953 21.6445L155.845 48.0455L161.841 47.8431ZM158.053 24.5416L165.226 24.2994L165.024 18.3028L157.85 18.545L158.053 24.5416ZM162.145 21.6478L162.799 27.2686L168.759 26.5752L168.105 20.9544L162.145 21.6478ZM164.825 30.5978L162.923 30.7109L163.279 36.7003L165.181 36.5872L164.825 30.5978ZM166.099 33.6043C166.041 31.8616 166.205 30.3793 166.547 29.1264L160.758 27.548C160.231 29.4838 160.028 31.5804 160.103 33.8068L166.099 33.6043ZM166.547 29.1264C166.897 27.8415 167.392 26.8351 167.986 26.048L163.196 22.4344C162.075 23.9199 161.278 25.6442 160.758 27.548L166.547 29.1264ZM167.983 26.052C168.595 25.2436 169.301 24.6554 170.111 24.2428L167.388 18.8964C165.733 19.7395 164.333 20.9324 163.199 22.4303L167.983 26.052ZM170.098 24.2495C170.924 23.8339 171.881 23.5862 173.018 23.5478L172.816 17.5512C170.894 17.6161 169.073 18.0484 167.401 18.8897L170.098 24.2495ZM173.018 23.5478C173.964 23.5158 174.759 23.6256 175.434 23.8358L177.219 18.1077C175.82 17.6714 174.342 17.4997 172.816 17.5512L173.018 23.5478ZM175.434 23.8358C176 24.0124 176.469 24.2993 176.88 24.7178L181.16 20.5126C180.053 19.3864 178.727 18.5777 177.219 18.1077L175.434 23.8358ZM176.926 24.7628C177.284 25.1127 177.67 25.6884 177.991 26.6393L183.676 24.7223C183.128 23.0968 182.305 21.6288 181.115 20.4676L176.926 24.7628ZM177.994 26.6492C178.303 27.5538 178.524 28.8191 178.582 30.5203L184.578 30.3178C184.508 28.2451 184.232 26.3516 183.673 24.7124L177.994 26.6492ZM178.582 30.5203L179.147 47.2588L185.143 47.0563L184.578 30.3178L178.582 30.5203ZM182.044 44.1593L174.382 44.4179L174.585 50.4145L182.246 50.1558L182.044 44.1593ZM177.482 47.315L176.916 30.5521L170.919 30.7545L171.485 47.5175L177.482 47.315ZM176.916 30.5521C176.871 29.2375 176.652 27.839 175.988 26.6473L170.746 29.5666C170.733 29.5428 170.774 29.6081 170.82 29.8206C170.865 30.0299 170.905 30.3344 170.919 30.7545L176.916 30.5521ZM175.988 26.6473C175.325 25.4564 174.306 24.5498 172.991 24.0676L170.925 29.7009C170.904 29.6931 170.854 29.6692 170.802 29.6237C170.751 29.5794 170.736 29.5487 170.746 29.5666L175.988 26.6473ZM173.018 24.0777C171.952 23.6753 170.814 23.5548 169.697 23.5925L169.9 29.5891C170.475 29.5697 170.776 29.6448 170.898 29.6909L173.018 24.0777ZM169.697 23.5925C168.403 23.6362 167.115 23.9403 165.962 24.6433L169.084 29.7667C169.176 29.7111 169.404 29.6058 169.9 29.5891L169.697 23.5925ZM166.012 24.6131C164.948 25.2335 164.087 26.0894 163.45 27.134L168.57 30.2607C168.704 30.0415 168.852 29.9025 169.034 29.7969L166.012 24.6131ZM163.45 27.134C162.855 28.1079 162.465 29.1817 162.239 30.3113L168.122 31.4876C168.231 30.9448 168.394 30.5505 168.57 30.2607L163.45 27.134ZM162.228 30.3662C162.035 31.4363 161.966 32.5486 162.004 33.6937L168.001 33.4913C167.975 32.7169 168.024 32.0339 168.133 31.4326L162.228 30.3662Z" fill="#F99F0C"/>
<path d="M199.635 9.57765L199.642 13.4351C199.644 14.5093 199.434 15.6164 199.013 16.7566C198.608 17.8804 198.073 18.9475 197.408 19.9578C196.742 20.9519 196.012 21.7996 195.215 22.501L191.769 20.5787C192.337 19.6174 192.832 18.5748 193.253 17.451C193.674 16.3108 193.883 14.9758 193.88 13.4459L193.873 9.58845L199.635 9.57765Z" fill="white"/>
<path d="M199.635 9.57765L202.635 9.57203L202.629 6.57203L199.629 6.57766L199.635 9.57765ZM199.013 16.7566L196.199 15.7173L196.195 15.7286L196.191 15.7399L199.013 16.7566ZM197.408 19.9578L199.901 21.6267L199.907 21.6173L199.913 21.6079L197.408 19.9578ZM195.215 22.501L193.754 25.1209L195.607 26.1544L197.198 24.7522L195.215 22.501ZM191.769 20.5787L189.186 19.053L187.622 21.7007L190.308 23.1987L191.769 20.5787ZM193.253 17.451L196.062 18.5035L196.065 18.4969L196.067 18.4902L193.253 17.451ZM193.873 9.58845L193.867 6.58846L190.867 6.59408L190.873 9.59408L193.873 9.58845ZM196.635 9.58328L196.642 13.4407L202.642 13.4294L202.635 9.57203L196.635 9.58328ZM196.642 13.4407C196.643 14.1147 196.513 14.8681 196.199 15.7173L201.827 17.7958C202.356 16.3648 202.645 14.9039 202.642 13.4294L196.642 13.4407ZM196.191 15.7399C195.867 16.6379 195.439 17.4927 194.902 18.3077L199.913 21.6079C200.707 20.4022 201.35 19.1228 201.836 17.7732L196.191 15.7399ZM194.915 18.289C194.376 19.0947 193.811 19.7399 193.232 20.2498L197.198 24.7522C198.212 23.8594 199.109 22.8092 199.901 21.6267L194.915 18.289ZM196.677 19.8811L193.231 17.9588L190.308 23.1987L193.754 25.1209L196.677 19.8811ZM194.352 22.1045C195.016 20.9816 195.584 19.7793 196.062 18.5035L190.444 16.3984C190.079 17.3703 189.659 18.2532 189.186 19.053L194.352 22.1045ZM196.067 18.4902C196.639 16.9416 196.883 15.2383 196.88 13.4402L190.88 13.4515C190.882 14.7133 190.709 15.68 190.439 16.4117L196.067 18.4902ZM196.88 13.4402L196.873 9.58283L190.873 9.59408L190.88 13.4515L196.88 13.4402ZM193.878 12.5884L199.64 12.5776L199.629 6.57766L193.867 6.58846L193.878 12.5884Z" fill="#F99F0C"/>
<path d="M228.743 38.2867C228.762 37.6848 228.69 37.1451 228.526 36.6676C228.362 36.1739 228.051 35.7162 227.592 35.2944C227.134 34.8727 226.48 34.4447 225.63 34.0105C224.782 33.5601 223.665 33.0929 222.28 32.6091C220.702 32.0377 219.2 31.4035 217.773 30.7067C216.362 29.994 215.11 29.1806 214.016 28.2664C212.921 27.3521 212.067 26.299 211.454 25.1069C210.857 23.9154 210.583 22.5388 210.633 20.9771C210.681 19.4642 211.058 18.1084 211.764 16.9095C212.47 15.7107 213.439 14.6994 214.67 13.8756C215.902 13.0355 217.338 12.4137 218.98 12.01C220.621 11.5902 222.418 11.4113 224.37 11.4736C226.973 11.5566 229.244 12.0931 231.183 13.0831C233.139 14.0574 234.643 15.3918 235.696 17.0864C236.75 18.7647 237.242 20.6938 237.173 22.8737L229.267 22.6216C229.297 21.6618 229.121 20.8094 228.738 20.0644C228.371 19.3036 227.788 18.6988 226.988 18.2499C226.204 17.8015 225.21 17.5581 224.007 17.5197C222.835 17.4824 221.845 17.63 221.037 17.9624C220.245 18.2792 219.636 18.732 219.211 19.3209C218.801 19.9104 218.585 20.563 218.562 21.2788C218.544 21.8482 218.673 22.3734 218.951 22.8545C219.246 23.3199 219.671 23.765 220.228 24.1898C220.801 24.5989 221.505 24.9959 222.339 25.3808C223.174 25.7656 224.131 26.1381 225.21 26.4982C227.095 27.1608 228.757 27.8815 230.198 28.6602C231.655 29.4395 232.873 30.3088 233.852 31.2682C234.831 32.2276 235.554 33.301 236.021 34.4884C236.504 35.6763 236.722 37.0104 236.675 38.4908C236.625 40.0687 236.271 41.4579 235.614 42.6583C234.973 43.8592 234.061 44.8723 232.879 45.6977C231.713 46.5073 230.326 47.1063 228.718 47.4947C227.11 47.8831 225.321 48.0459 223.353 47.9831C221.563 47.9261 219.806 47.642 218.079 47.131C216.354 46.6038 214.799 45.8377 213.414 44.8328C212.046 43.8283 210.962 42.5725 210.163 41.0651C209.381 39.542 209.023 37.7556 209.088 35.7059L217.043 35.9595C217.009 37.0332 217.135 37.9491 217.42 38.7073C217.706 39.4492 218.126 40.057 218.681 40.5306C219.252 41.0048 219.949 41.3527 220.773 41.5744C221.596 41.7961 222.52 41.9232 223.545 41.9559C224.733 41.9938 225.698 41.8617 226.44 41.5597C227.199 41.2419 227.767 40.7959 228.144 40.2217C228.52 39.6475 228.72 39.0025 228.743 38.2867Z" fill="white"/>
<path d="M228.526 36.6676L225.678 37.6101L225.683 37.6259L225.688 37.6417L228.526 36.6676ZM227.592 35.2944L229.623 33.0858L227.592 35.2944ZM225.63 34.0105L224.224 36.6604L224.244 36.6712L224.265 36.6817L225.63 34.0105ZM222.28 32.6091L221.258 35.4298L221.274 35.4356L221.29 35.4412L222.28 32.6091ZM217.773 30.7067L216.42 33.3843L216.438 33.3935L216.456 33.4024L217.773 30.7067ZM211.454 25.1069L208.772 26.451L208.779 26.4653L208.786 26.4796L211.454 25.1069ZM211.764 16.9095L209.179 15.3874L211.764 16.9095ZM214.67 13.8756L216.338 16.369L216.349 16.3616L216.36 16.3541L214.67 13.8756ZM218.98 12.01L219.696 14.9233L219.709 14.9199L219.723 14.9165L218.98 12.01ZM231.183 13.0831L229.819 15.7549L229.832 15.7617L229.845 15.7683L231.183 13.0831ZM235.696 17.0864L233.148 18.6701L233.156 18.6817L235.696 17.0864ZM237.173 22.8737L237.077 25.8722L240.076 25.9678L240.171 22.9693L237.173 22.8737ZM229.267 22.6216L226.268 22.526L226.173 25.5245L229.171 25.6201L229.267 22.6216ZM228.738 20.0644L226.035 21.3666L226.052 21.402L226.07 21.437L228.738 20.0644ZM226.988 18.2499L225.498 20.8538L225.509 20.86L225.52 20.8661L226.988 18.2499ZM221.037 17.9624L222.151 20.7478L222.165 20.7425L222.178 20.737L221.037 17.9624ZM219.211 19.3209L216.78 17.563L216.763 17.5858L216.747 17.609L219.211 19.3209ZM218.951 22.8545L216.353 24.3546L216.384 24.4074L216.416 24.459L218.951 22.8545ZM220.228 24.1898L218.407 26.5742L218.446 26.6036L218.485 26.6317L220.228 24.1898ZM225.21 26.4982L226.206 23.6681L226.183 23.6601L226.16 23.6524L225.21 26.4982ZM230.198 28.6602L228.771 31.2994L228.783 31.3056L230.198 28.6602ZM236.021 34.4884L233.229 35.5864L233.235 35.6026L233.242 35.6188L236.021 34.4884ZM235.614 42.6583L232.982 41.2178L232.975 41.2318L232.967 41.2459L235.614 42.6583ZM232.879 45.6977L234.59 48.1617L234.596 48.1577L232.879 45.6977ZM218.079 47.131L217.203 50.0001L217.215 50.0039L217.228 50.0076L218.079 47.131ZM213.414 44.8328L211.639 47.2512L211.645 47.256L211.652 47.2607L213.414 44.8328ZM210.163 41.0651L207.494 42.4353L207.503 42.4526L207.512 42.4698L210.163 41.0651ZM209.088 35.7059L209.184 32.7074L206.186 32.6118L206.09 35.6103L209.088 35.7059ZM217.043 35.9595L220.042 36.0551L220.137 33.0567L217.139 32.9611L217.043 35.9595ZM217.42 38.7073L214.612 39.7636L214.616 39.7746L214.62 39.7855L217.42 38.7073ZM218.681 40.5306L216.733 42.8123L216.749 42.8257L216.764 42.8388L218.681 40.5306ZM226.44 41.5597L227.57 44.3386L227.584 44.3329L227.598 44.3271L226.44 41.5597ZM231.741 38.3823C231.77 37.4855 231.665 36.5742 231.363 35.6936L225.688 37.6417C225.714 37.716 225.754 37.8841 225.744 38.1911L231.741 38.3823ZM231.374 35.7252C231.021 34.659 230.383 33.7847 229.623 33.0858L225.562 37.5031C225.643 37.577 225.678 37.6245 225.689 37.6403C225.698 37.6541 225.689 37.6433 225.678 37.6101L231.374 35.7252ZM229.623 33.0858C228.888 32.4108 227.973 31.8391 226.996 31.3394L224.265 36.6817C224.986 37.0504 225.379 37.3346 225.562 37.5031L229.623 33.0858ZM227.037 31.3606C226.004 30.8122 224.731 30.2877 223.269 29.7769L221.29 35.4412C222.598 35.8982 223.56 36.3079 224.224 36.6604L227.037 31.3606ZM223.301 29.7884C221.819 29.2513 220.415 28.6584 219.089 28.0109L216.456 33.4024C217.985 34.1487 219.586 34.824 221.258 35.4298L223.301 29.7884ZM219.126 28.0291C217.898 27.4085 216.84 26.7171 215.939 25.964L212.092 30.5687C213.38 31.6441 214.827 32.5796 216.42 33.3843L219.126 28.0291ZM215.939 25.964C215.132 25.2902 214.54 24.5474 214.121 23.7343L208.786 26.4796C209.595 28.0505 210.71 29.4141 212.092 30.5687L215.939 25.964ZM214.136 23.7629C213.798 23.0887 213.595 22.2219 213.631 21.0727L207.634 20.8815C207.571 22.8557 207.915 24.7421 208.772 26.451L214.136 23.7629ZM213.631 21.0727C213.665 20.0171 213.921 19.1597 214.349 18.4317L209.179 15.3874C208.196 17.0571 207.697 18.9113 207.634 20.8815L213.631 21.0727ZM214.349 18.4317C214.812 17.6464 215.457 16.9587 216.338 16.369L213.002 11.3822C211.42 12.4401 210.128 13.775 209.179 15.3874L214.349 18.4317ZM216.36 16.3541C217.259 15.741 218.357 15.2526 219.696 14.9233L218.263 9.09685C216.32 9.57473 214.544 10.33 212.98 11.3971L216.36 16.3541ZM219.723 14.9165C221.053 14.5764 222.563 14.4175 224.275 14.4721L224.466 8.4751C222.273 8.40519 220.19 8.60393 218.236 9.1036L219.723 14.9165ZM224.275 14.4721C226.521 14.5437 228.343 15.0015 229.819 15.7549L232.547 10.4113C230.145 9.18464 227.425 8.56945 224.466 8.4751L224.275 14.4721ZM229.845 15.7683C231.352 16.519 232.416 17.4921 233.148 18.6701L238.244 15.5027C236.87 13.2915 234.925 11.5957 232.521 10.3979L229.845 15.7683ZM233.156 18.6817C233.86 19.804 234.227 21.1323 234.174 22.7781L240.171 22.9693C240.258 20.2553 239.64 17.7255 238.237 15.4911L233.156 18.6817ZM237.268 19.8752L229.362 19.6231L229.171 25.6201L237.077 25.8722L237.268 19.8752ZM232.265 22.7172C232.31 21.3232 232.054 19.9527 231.405 18.6918L226.07 21.437C226.188 21.6661 226.285 22.0004 226.268 22.526L232.265 22.7172ZM231.44 18.7622C230.783 17.399 229.744 16.3564 228.456 15.6337L225.52 20.8661C225.832 21.0412 225.959 21.2082 226.035 21.3666L231.44 18.7622ZM228.478 15.646C227.15 14.8865 225.639 14.5703 224.102 14.5213L223.911 20.5182C224.782 20.546 225.258 20.7165 225.498 20.8538L228.478 15.646ZM224.102 14.5213C222.644 14.4748 221.206 14.6494 219.896 15.1879L222.178 20.737C222.485 20.6106 223.027 20.49 223.911 20.5182L224.102 14.5213ZM219.923 15.177C218.697 15.6675 217.592 16.439 216.78 17.563L221.641 21.0789C221.68 21.025 221.794 20.8908 222.151 20.7478L219.923 15.177ZM216.747 17.609C216.007 18.6731 215.605 19.8868 215.563 21.1832L221.56 21.3744C221.565 21.2392 221.594 21.1477 221.674 21.0329L216.747 17.609ZM215.563 21.1832C215.528 22.2964 215.788 23.3765 216.353 24.3546L221.549 21.3545C221.548 21.3516 221.549 21.3533 221.551 21.3592C221.554 21.3651 221.556 21.3724 221.558 21.38C221.56 21.3875 221.56 21.3923 221.56 21.3931C221.561 21.3938 221.56 21.3879 221.56 21.3744L215.563 21.1832ZM216.416 24.459C216.945 25.2936 217.641 25.9896 218.407 26.5742L222.048 21.8054C221.701 21.5403 221.547 21.3461 221.486 21.25L216.416 24.459ZM218.485 26.6317C219.249 27.1771 220.126 27.6638 221.083 28.105L223.596 22.6565C222.883 22.328 222.353 22.0207 221.971 21.748L218.485 26.6317ZM221.083 28.105C222.038 28.5453 223.101 28.9569 224.261 29.3441L226.16 23.6524C225.161 23.3193 224.31 22.9859 223.596 22.6565L221.083 28.105ZM224.215 29.3283C225.982 29.9496 227.495 30.6096 228.771 31.2994L231.624 26.021C230.019 25.1533 228.207 24.3721 226.206 23.6681L224.215 29.3283ZM228.783 31.3056C230.039 31.9772 231.013 32.6866 231.752 33.4109L235.952 29.1255C234.733 27.931 233.271 26.9017 231.613 26.0148L228.783 31.3056ZM231.752 33.4109C232.452 34.097 232.928 34.8207 233.229 35.5864L238.813 33.3904C238.18 31.7814 237.21 30.3583 235.952 29.1255L231.752 33.4109ZM233.242 35.6188C233.544 36.3622 233.712 37.2697 233.676 38.3952L239.673 38.5864C239.732 36.7511 239.464 34.9904 238.8 33.358L233.242 35.6188ZM233.676 38.3952C233.639 39.5748 233.381 40.49 232.982 41.2178L238.245 44.0988C239.161 42.4258 239.61 40.5627 239.673 38.5864L233.676 38.3952ZM232.967 41.2459C232.562 42.0044 231.98 42.6667 231.162 43.2376L234.596 48.1577C236.143 47.0779 237.384 45.714 238.261 44.0706L232.967 41.2459ZM231.167 43.2336C230.353 43.7996 229.32 44.263 228.014 44.5785L229.422 50.4108C231.332 49.9495 233.074 49.215 234.59 48.1617L231.167 43.2336ZM228.014 44.5785C226.711 44.8931 225.197 45.0404 223.448 44.9847L223.257 50.9816C225.445 51.0514 227.508 50.8731 229.422 50.4108L228.014 44.5785ZM223.448 44.9847C221.917 44.9358 220.413 44.6931 218.931 44.2544L217.228 50.0076C219.198 50.591 221.21 50.9163 223.257 50.9816L223.448 44.9847ZM218.956 44.262C217.531 43.8264 216.278 43.2042 215.176 42.4048L211.652 47.2607C213.32 48.4711 215.177 49.3811 217.203 50.0001L218.956 44.262ZM215.189 42.4143C214.187 41.6789 213.402 40.7702 212.814 39.6605L207.512 42.4698C208.522 44.3747 209.904 45.9778 211.639 47.2512L215.189 42.4143ZM212.832 39.695C212.325 38.7063 212.035 37.443 212.087 35.8015L206.09 35.6103C206.012 38.0682 206.438 40.3778 207.494 42.4353L212.832 39.695ZM208.993 38.7044L216.948 38.958L217.139 32.9611L209.184 32.7074L208.993 38.7044ZM214.045 35.8639C214.002 37.2091 214.151 38.539 214.612 39.7636L220.228 37.651C220.118 37.3593 220.016 36.8573 220.042 36.0551L214.045 35.8639ZM214.62 39.7855C215.069 40.9504 215.765 41.9861 216.733 42.8123L220.629 38.249C220.487 38.1279 220.342 37.9481 220.219 37.6291L214.62 39.7855ZM216.764 42.8388C217.714 43.6268 218.814 44.1541 219.993 44.4713L221.552 38.6775C221.084 38.5514 220.79 38.3828 220.597 38.2225L216.764 42.8388ZM219.993 44.4713C221.079 44.7637 222.238 44.9158 223.449 44.9544L223.641 38.9574C222.802 38.9307 222.113 38.8284 221.552 38.6775L219.993 44.4713ZM223.449 44.9544C224.872 44.9997 226.298 44.8561 227.57 44.3386L225.31 38.7808C225.097 38.8674 224.593 38.9878 223.641 38.9574L223.449 44.9544ZM227.598 44.3271C228.798 43.8249 229.887 43.0337 230.652 41.8668L225.635 38.5766C225.634 38.5779 225.624 38.595 225.582 38.6275C225.538 38.6625 225.447 38.7233 225.282 38.7923L227.598 44.3271ZM230.652 41.8668C231.345 40.8107 231.702 39.625 231.741 38.3823L225.744 38.1911C225.738 38.3799 225.696 38.4843 225.635 38.5766L230.652 41.8668Z" fill="#F99F0C"/>
<path d="M260.913 59.7777L263.283 28.7646L264.722 23.3898L271.343 23.8957L268.557 60.3617L260.913 59.7777ZM246.267 35.4713L246.306 34.9601C246.459 32.964 246.817 31.1631 247.38 29.5575C247.945 27.9356 248.702 26.5733 249.651 25.4705C250.618 24.3528 251.767 23.5264 253.097 22.9915C254.429 22.4403 255.93 22.2285 257.602 22.3562C259.176 22.4765 260.514 22.9133 261.615 23.6667C262.717 24.4201 263.611 25.427 264.298 26.6875C264.986 27.9479 265.511 29.4082 265.874 31.0683C266.236 32.7283 266.475 34.5258 266.588 36.4606L266.521 37.337C266.124 39.1185 265.621 40.7859 265.012 42.3391C264.422 43.8774 263.683 45.2166 262.796 46.3567C261.925 47.4981 260.879 48.365 259.659 48.9574C258.454 49.5509 257.057 49.787 255.467 49.6655C253.811 49.539 252.368 49.0941 251.137 48.3308C249.923 47.5525 248.932 46.53 248.164 45.2634C247.396 43.9805 246.848 42.5103 246.517 40.8527C246.204 39.1801 246.121 37.3863 246.267 35.4713ZM253.901 35.5404L253.862 36.0516C253.782 37.1064 253.78 38.0938 253.856 39.0138C253.951 39.9188 254.149 40.7338 254.453 41.459C254.758 42.1678 255.188 42.7393 255.742 43.1735C256.298 43.5914 256.998 43.8325 257.842 43.897C259.075 43.9912 260.077 43.7985 260.849 43.3187C261.62 42.839 262.204 42.1327 262.602 41.2C263.016 40.2686 263.278 39.1868 263.389 37.9546L263.586 35.3743C263.649 34.3344 263.614 33.4013 263.481 32.575C263.365 31.7499 263.133 31.0385 262.787 30.4407C262.441 29.843 261.963 29.3738 261.352 29.0334C260.758 28.6941 259.998 28.4892 259.073 28.4185C258.229 28.354 257.501 28.4861 256.888 28.8147C256.276 29.1434 255.765 29.6348 255.355 30.2892C254.948 30.9273 254.62 31.6939 254.372 32.5891C254.14 33.4855 253.983 34.4693 253.901 35.5404Z" fill="white"/>
<path d="M260.913 59.7777L257.922 59.5492L257.694 62.5405L260.685 62.769L260.913 59.7777ZM263.283 28.7646L260.385 27.9887L260.313 28.2581L260.291 28.5361L263.283 28.7646ZM264.722 23.3898L264.95 20.3986L262.468 20.2089L261.824 22.614L264.722 23.3898ZM271.343 23.8957L274.334 24.1242L274.563 21.1329L271.572 20.9044L271.343 23.8957ZM268.557 60.3617L268.329 63.353L271.32 63.5815L271.548 60.5902L268.557 60.3617ZM247.38 29.5575L250.211 30.5508L250.213 30.5438L247.38 29.5575ZM249.651 25.4705L247.382 23.5079L247.378 23.5132L249.651 25.4705ZM253.097 22.9915L254.216 25.7749L254.231 25.7692L254.245 25.7634L253.097 22.9915ZM261.615 23.6667L259.922 26.1428L261.615 23.6667ZM266.588 36.4606L269.579 36.6891L269.595 36.4873L269.583 36.2851L266.588 36.4606ZM266.521 37.337L269.449 37.9899L269.496 37.78L269.512 37.5655L266.521 37.337ZM265.012 42.3391L262.219 41.245L262.216 41.2542L262.212 41.2633L265.012 42.3391ZM262.796 46.3567L260.428 44.5147L260.419 44.5259L260.411 44.5372L262.796 46.3567ZM259.659 48.9574L258.349 46.2584L258.341 46.2624L258.333 46.2665L259.659 48.9574ZM251.137 48.3308L249.517 50.8562L249.537 50.8685L249.556 50.8805L251.137 48.3308ZM248.164 45.2634L245.589 46.803L245.594 46.8112L245.599 46.8193L248.164 45.2634ZM246.517 40.8527L243.568 41.4044L243.572 41.4218L243.575 41.4391L246.517 40.8527ZM253.856 39.0138L250.867 39.2628L250.869 39.2935L250.873 39.3241L253.856 39.0138ZM254.453 41.459L251.686 42.618L251.692 42.6313L251.697 42.6445L254.453 41.459ZM255.742 43.1735L253.893 45.5356L253.916 45.5536L253.939 45.5712L255.742 43.1735ZM262.602 41.2L259.861 39.9817L259.851 40.0024L259.842 40.0233L262.602 41.2ZM263.389 37.9546L266.377 38.2225L266.378 38.2028L266.38 38.1832L263.389 37.9546ZM263.586 35.3743L266.577 35.6028L266.579 35.5794L266.58 35.556L263.586 35.3743ZM263.481 32.575L260.511 32.9945L260.515 33.0227L260.519 33.0508L263.481 32.575ZM261.352 29.0334L259.865 31.6389L259.878 31.6463L259.891 31.6536L261.352 29.0334ZM255.355 30.2892L257.883 31.9049L257.891 31.8923L257.899 31.8796L255.355 30.2892ZM254.372 32.5891L251.481 31.7883L251.474 31.8132L251.467 31.8383L254.372 32.5891ZM263.905 60.0063L266.274 28.9931L260.291 28.5361L257.922 59.5492L263.905 60.0063ZM266.181 29.5405L267.62 24.1657L261.824 22.614L260.385 27.9887L266.181 29.5405ZM264.493 26.3811L271.115 26.887L271.572 20.9044L264.95 20.3986L264.493 26.3811ZM268.352 23.6672L265.566 60.1332L271.548 60.5902L274.334 24.1242L268.352 23.6672ZM268.786 57.3704L261.142 56.7864L260.685 62.769L268.329 63.353L268.786 57.3704ZM249.259 35.6998L249.298 35.1886L243.315 34.7316L243.276 35.2428L249.259 35.6998ZM249.298 35.1886C249.434 33.4087 249.748 31.8706 250.211 30.5508L244.549 28.5642C243.886 30.4555 243.484 32.5192 243.315 34.7316L249.298 35.1886ZM250.213 30.5438C250.676 29.215 251.261 28.1985 251.925 27.4279L247.378 23.5132C246.142 24.9481 245.214 26.6562 244.547 28.5711L250.213 30.5438ZM251.92 27.4332C252.585 26.6652 253.343 26.1261 254.216 25.7749L251.978 20.2081C250.191 20.9268 248.652 22.0404 247.382 23.5079L251.92 27.4332ZM254.245 25.7634C255.075 25.4195 256.095 25.2498 257.374 25.3475L257.831 19.3649C255.766 19.2072 253.782 19.461 251.95 20.2195L254.245 25.7634ZM257.374 25.3475C258.519 25.435 259.329 25.7371 259.922 26.1428L263.309 21.1906C261.699 20.0895 259.833 19.5179 257.831 19.3649L257.374 25.3475ZM259.922 26.1428C260.603 26.6087 261.186 27.2469 261.664 28.1236L266.932 25.2514C266.036 23.6072 264.831 22.2316 263.309 21.1906L259.922 26.1428ZM261.664 28.1236C262.193 29.0934 262.63 30.2773 262.943 31.7089L268.804 30.4276C268.392 28.5391 267.778 26.8024 266.932 25.2514L261.664 28.1236ZM262.943 31.7089C263.268 33.1963 263.488 34.8364 263.593 36.6361L269.583 36.2851C269.462 34.2151 269.205 32.2604 268.804 30.4276L262.943 31.7089ZM263.597 36.2321L263.53 37.1084L269.512 37.5655L269.579 36.6891L263.597 36.2321ZM263.593 36.684C263.226 38.3292 262.766 39.8478 262.219 41.245L267.806 43.4332C268.475 41.724 269.021 39.9079 269.449 37.9899L263.593 36.684ZM262.212 41.2633C261.712 42.5643 261.11 43.6374 260.428 44.5147L265.164 48.1988C266.255 46.7957 267.131 45.1904 267.813 43.4149L262.212 41.2633ZM260.411 44.5372C259.807 45.3277 259.123 45.8829 258.349 46.2584L260.969 51.6563C262.636 50.8471 264.042 49.6686 265.181 48.1763L260.411 44.5372ZM258.333 46.2665C257.694 46.5812 256.851 46.7625 255.695 46.6742L255.238 52.6568C257.263 52.8115 259.215 52.5207 260.985 51.6483L258.333 46.2665ZM255.695 46.6742C254.449 46.579 253.484 46.2561 252.718 45.781L249.556 50.8805C251.252 51.9321 253.174 52.499 255.238 52.6568L255.695 46.6742ZM252.756 45.8054C251.938 45.2808 251.267 44.5941 250.729 43.7074L245.599 46.8193C246.598 48.4659 247.908 49.8241 249.517 50.8562L252.756 45.8054ZM250.738 43.7237C250.169 42.771 249.731 41.6309 249.459 40.2662L243.575 41.4391C243.964 43.3896 244.624 45.19 245.589 46.803L250.738 43.7237ZM249.466 40.3009C249.207 38.916 249.13 37.3869 249.259 35.6998L243.276 35.2428C243.112 37.3857 243.202 39.4442 243.568 41.4044L249.466 40.3009ZM250.91 35.3118L250.871 35.823L256.854 36.2801L256.893 35.7689L250.91 35.3118ZM250.871 35.823C250.78 37.0144 250.775 38.163 250.867 39.2628L256.846 38.7648C256.784 38.0247 256.783 37.1985 256.854 36.2801L250.871 35.823ZM250.873 39.3241C250.992 40.4762 251.253 41.5834 251.686 42.618L257.22 40.2999C257.046 39.8843 256.909 39.3614 256.84 38.7036L250.873 39.3241ZM251.697 42.6445C252.182 43.77 252.905 44.7624 253.893 45.5356L257.592 40.8113C257.47 40.7163 257.335 40.5656 257.209 40.2734L251.697 42.6445ZM253.939 45.5712C255.043 46.4012 256.323 46.7898 257.613 46.8883L258.07 40.9057C257.672 40.8753 257.553 40.7815 257.545 40.7758L253.939 45.5712ZM257.613 46.8883C259.256 47.0138 260.955 46.7857 262.433 45.8661L259.264 40.7714C259.2 40.8113 258.894 40.9686 258.07 40.9057L257.613 46.8883ZM262.433 45.8661C263.788 45.0235 264.752 43.8074 265.362 42.3768L259.842 40.0233C259.657 40.4581 259.452 40.6544 259.264 40.7714L262.433 45.8661ZM265.343 42.4184C265.916 41.1293 266.243 39.7151 266.377 38.2225L260.401 37.6868C260.314 38.6585 260.116 39.4078 259.861 39.9817L265.343 42.4184ZM266.38 38.1832L266.577 35.6028L260.594 35.1457L260.397 37.7261L266.38 38.1832ZM266.58 35.556C266.654 34.3474 266.618 33.188 266.443 32.0991L260.519 33.0508C260.61 33.6146 260.644 34.3214 260.591 35.1925L266.58 35.556ZM266.452 32.1555C266.292 31.0253 265.958 29.9303 265.384 28.9375L260.191 31.9439C260.309 32.1467 260.437 32.4745 260.511 32.9945L266.452 32.1555ZM265.384 28.9375C264.763 27.866 263.89 27.0135 262.813 26.4132L259.891 31.6536C260.036 31.7341 260.119 31.8199 260.191 31.9439L265.384 28.9375ZM262.839 26.4279C261.748 25.8047 260.521 25.5203 259.302 25.4272L258.845 31.4098C259.476 31.458 259.768 31.5836 259.865 31.6389L262.839 26.4279ZM259.302 25.4272C258.012 25.3287 256.687 25.5182 255.47 26.171L258.306 31.4585C258.315 31.454 258.447 31.3794 258.845 31.4098L259.302 25.4272ZM255.47 26.171C254.348 26.773 253.467 27.6511 252.812 28.6988L257.899 31.8796C258.062 31.6186 258.203 31.5137 258.306 31.4585L255.47 26.171ZM252.828 28.6735C252.227 29.6131 251.791 30.6676 251.481 31.7883L257.263 33.3899C257.448 32.7203 257.668 32.2415 257.883 31.9049L252.828 28.6735ZM251.467 31.8383C251.185 32.9305 251.003 34.0917 250.91 35.3118L256.893 35.7689C256.963 34.8468 257.095 34.0405 257.276 33.3399L251.467 31.8383Z" fill="#F99F0C"/>
<path d="M296.144 46.7688L298.518 26.866L306.131 27.7742L303.001 54.0042L295.874 53.1539L296.144 46.7688ZM297.583 41.5068L299.674 41.707C299.464 43.4686 299.06 45.0678 298.462 46.5045C297.881 47.9431 297.112 49.1628 296.157 50.1634C295.218 51.166 294.105 51.902 292.82 52.3715C291.553 52.8268 290.119 52.959 288.519 52.7681C287.226 52.6138 286.06 52.2943 285.019 51.8096C283.997 51.3106 283.144 50.627 282.461 49.7587C281.78 48.8742 281.302 47.7928 281.029 46.5144C280.757 45.2198 280.724 43.7079 280.93 41.9786L282.955 25.0091L290.519 25.9115L288.488 42.9295C288.407 43.6083 288.419 44.1998 288.522 44.7039C288.644 45.1938 288.832 45.6096 289.087 45.9514C289.357 46.2951 289.702 46.5657 290.121 46.7632C290.556 46.9627 291.04 47.0942 291.573 47.1578C292.915 47.3179 293.998 47.1685 294.823 46.7096C295.666 46.2365 296.298 45.5496 296.716 44.6489C297.153 43.7339 297.442 42.6865 297.583 41.5068Z" fill="white"/>
<path d="M296.144 46.7688L293.165 46.4134L293.151 46.5274L293.147 46.642L296.144 46.7688ZM298.518 26.866L298.874 23.8872L295.895 23.5317L295.54 26.5106L298.518 26.866ZM306.131 27.7742L309.109 28.1296L309.465 25.1508L306.486 24.7954L306.131 27.7742ZM303.001 54.0042L302.646 56.9831L305.624 57.3385L305.98 54.3596L303.001 54.0042ZM295.874 53.1539L292.876 53.0271L292.759 55.8035L295.518 56.1327L295.874 53.1539ZM297.583 41.5068L297.869 38.5204L294.951 38.2409L294.604 41.1513L297.583 41.5068ZM299.674 41.707L302.653 42.0624L303.016 39.0135L299.96 38.7207L299.674 41.707ZM298.462 46.5045L295.692 45.3523L295.686 45.3663L295.681 45.3804L298.462 46.5045ZM296.157 50.1634L293.987 48.0917L293.977 48.102L293.967 48.1124L296.157 50.1634ZM292.82 52.3715L293.834 55.1948L293.842 55.1922L293.849 55.1894L292.82 52.3715ZM285.019 51.8096L283.703 54.5056L283.728 54.5175L283.752 54.5289L285.019 51.8096ZM282.461 49.7587L280.084 51.5893L280.094 51.6016L280.103 51.6137L282.461 49.7587ZM281.029 46.5144L278.092 47.1306L278.095 47.1423L281.029 46.5144ZM282.955 25.0091L283.31 22.0303L280.332 21.6748L279.976 24.6537L282.955 25.0091ZM290.519 25.9115L293.497 26.267L293.853 23.2881L290.874 22.9327L290.519 25.9115ZM288.522 44.7039L285.584 45.3087L285.596 45.3686L285.611 45.428L288.522 44.7039ZM289.087 45.9514L286.68 47.7421L286.704 47.7746L286.729 47.8064L289.087 45.9514ZM290.121 46.7632L288.841 49.4768L288.856 49.4837L288.871 49.4904L290.121 46.7632ZM294.823 46.7096L296.281 49.3315L296.291 49.3259L294.823 46.7096ZM296.716 44.6489L294.009 43.3559L294.003 43.3698L293.996 43.3838L296.716 44.6489ZM299.123 47.1242L301.497 27.2214L295.54 26.5106L293.165 46.4134L299.123 47.1242ZM298.163 29.8449L305.775 30.7531L306.486 24.7954L298.874 23.8872L298.163 29.8449ZM303.152 27.4188L300.022 53.6488L305.98 54.3596L309.109 28.1296L303.152 27.4188ZM303.356 51.0253L296.229 50.175L295.518 56.1327L302.646 56.9831L303.356 51.0253ZM298.871 53.2806L299.141 46.8956L293.147 46.642L292.876 53.0271L298.871 53.2806ZM297.297 44.4931L299.388 44.6933L299.96 38.7207L297.869 38.5204L297.297 44.4931ZM296.695 41.3516C296.513 42.8768 296.17 44.2031 295.692 45.3523L301.232 47.6566C301.949 45.9325 302.414 44.0604 302.653 42.0624L296.695 41.3516ZM295.681 45.3804C295.224 46.5099 294.65 47.3968 293.987 48.0917L298.327 52.2351C299.574 50.9287 300.537 49.3763 301.243 47.6286L295.681 45.3804ZM293.967 48.1124C293.348 48.7734 292.633 49.246 291.791 49.5536L293.849 55.1894C295.578 54.558 297.087 53.5585 298.346 52.2144L293.967 48.1124ZM291.806 49.5482C291.055 49.818 290.102 49.9357 288.874 49.7892L288.164 55.747C290.136 55.9823 292.051 55.8356 293.834 55.1948L291.806 49.5482ZM288.874 49.7892C287.855 49.6676 287.002 49.424 286.286 49.0903L283.752 54.5289C285.117 55.1646 286.597 55.56 288.164 55.747L288.874 49.7892ZM286.335 49.1136C285.706 48.8068 285.214 48.406 284.819 47.9036L280.103 51.6137C281.074 52.848 282.287 53.8144 283.703 54.5056L286.335 49.1136ZM284.838 47.928C284.472 47.4536 284.158 46.8018 283.962 45.8864L278.095 47.1423C278.446 48.7838 279.087 50.2948 280.084 51.5893L284.838 47.928ZM283.965 45.8981C283.777 45.0059 283.73 43.8358 283.909 42.334L277.952 41.6232C277.718 43.58 277.736 45.4337 278.092 47.1306L283.965 45.8981ZM283.909 42.334L285.934 25.3645L279.976 24.6537L277.952 41.6232L283.909 42.334ZM282.6 27.988L290.163 28.8904L290.874 22.9327L283.31 22.0303L282.6 27.988ZM287.54 25.5561L285.509 42.5741L291.467 43.2849L293.497 26.267L287.54 25.5561ZM285.509 42.5741C285.402 43.4746 285.398 44.4044 285.584 45.3087L291.461 44.0991C291.439 43.9951 291.412 43.742 291.467 43.2849L285.509 42.5741ZM285.611 45.428C285.811 46.2332 286.149 47.0284 286.68 47.7421L291.493 44.1607C291.516 44.1908 291.477 44.1543 291.434 43.9797L285.611 45.428ZM286.729 47.8064C287.304 48.5378 288.027 49.0928 288.841 49.4768L291.4 44.0496C291.383 44.0414 291.386 44.0409 291.4 44.0524C291.407 44.0577 291.415 44.0646 291.423 44.0727C291.431 44.0808 291.438 44.0889 291.444 44.0963L286.729 47.8064ZM288.871 49.4904C289.621 49.8345 290.413 50.0406 291.218 50.1367L291.929 44.1789C291.668 44.1478 291.49 44.0908 291.371 44.036L288.871 49.4904ZM291.218 50.1367C292.926 50.3405 294.712 50.2039 296.281 49.3315L293.365 44.0877C293.284 44.133 292.904 44.2952 291.929 44.1789L291.218 50.1367ZM296.291 49.3259C297.699 48.536 298.76 47.3686 299.437 45.914L293.996 43.3838C293.835 43.7306 293.634 43.937 293.355 44.0932L296.291 49.3259ZM299.424 45.9418C300.024 44.6854 300.389 43.3126 300.562 41.8622L294.604 41.1513C294.496 42.0604 294.283 42.7824 294.009 43.3559L299.424 45.9418Z" fill="#F99F0C"/>
<path d="M325.468 30.654L321.472 56.766L313.918 55.6099L317.914 29.4979L325.468 30.654ZM318.49 22.6705C318.658 21.5765 319.18 20.7426 320.059 20.169C320.939 19.5793 322.007 19.3805 323.262 19.5726C324.517 19.7646 325.476 20.2737 326.14 21.0998C326.823 21.9123 327.08 22.8655 326.913 23.9596C326.748 25.0375 326.217 25.8701 325.32 26.4574C324.442 27.031 323.375 27.2217 322.12 27.0297C320.866 26.8376 319.905 26.3366 319.239 25.5266C318.575 24.7005 318.325 23.7484 318.49 22.6705Z" fill="white"/>
<path d="M325.468 30.654L328.434 31.1079L328.887 28.1424L325.922 27.6886L325.468 30.654ZM321.472 56.766L321.018 59.7314L323.983 60.1853L324.437 57.2199L321.472 56.766ZM313.918 55.6099L310.952 55.156L310.499 58.1215L313.464 58.5753L313.918 55.6099ZM317.914 29.4979L318.368 26.5325L315.403 26.0786L314.949 29.044L317.914 29.4979ZM320.059 20.169L321.699 22.6807L321.714 22.6713L321.728 22.6617L320.059 20.169ZM326.14 21.0998L323.802 22.9791L323.822 23.0045L323.843 23.0294L326.14 21.0998ZM325.32 26.4574L326.961 28.969L326.964 28.9671L325.32 26.4574ZM319.239 25.5266L316.9 27.4059L316.911 27.4192L316.922 27.4325L319.239 25.5266ZM322.503 30.2002L318.506 56.3121L324.437 57.2199L328.434 31.1079L322.503 30.2002ZM321.925 53.8005L314.372 52.6444L313.464 58.5753L321.018 59.7314L321.925 53.8005ZM316.883 56.0637L320.88 29.9518L314.949 29.044L310.952 55.156L316.883 56.0637ZM317.461 32.4634L325.014 33.6195L325.922 27.6886L318.368 26.5325L317.461 32.4634ZM321.456 23.1244C321.485 22.9318 321.531 22.8474 321.55 22.8182C321.566 22.7927 321.599 22.7461 321.699 22.6807L318.418 17.6574C316.782 18.7258 315.813 20.3322 315.525 22.2166L321.456 23.1244ZM321.728 22.6617C321.866 22.5695 322.14 22.4358 322.808 22.538L323.716 16.6071C321.874 16.3252 320.013 16.5892 318.389 17.6763L321.728 22.6617ZM322.808 22.538C323.476 22.6403 323.698 22.8499 323.802 22.9791L328.478 19.2205C327.255 17.6975 325.557 16.889 323.716 16.6071L322.808 22.538ZM323.843 23.0294C323.925 23.1267 323.942 23.1821 323.949 23.2065C323.956 23.2342 323.975 23.3212 323.947 23.5057L329.878 24.4135C330.17 22.5077 329.702 20.6758 328.437 19.1703L323.843 23.0294ZM323.947 23.5057C323.921 23.6756 323.88 23.7503 323.861 23.7797C323.843 23.8078 323.8 23.8667 323.676 23.9477L326.964 28.9671C328.587 27.904 329.587 26.3165 329.878 24.4135L323.947 23.5057ZM323.679 23.9457C323.544 24.0342 323.26 24.1692 322.574 24.0642L321.667 29.9951C323.49 30.2743 325.34 30.0277 326.961 28.969L323.679 23.9457ZM322.574 24.0642C321.888 23.9592 321.658 23.7456 321.555 23.6206L316.922 27.4325C318.152 28.9276 319.843 29.716 321.667 29.9951L322.574 24.0642ZM321.577 23.6472C321.457 23.4978 321.414 23.3984 321.456 23.1244L315.525 22.2166C315.237 24.0985 315.692 25.9031 316.9 27.4059L321.577 23.6472Z" fill="#F99F0C"/>
<path d="M354.214 56.5155L353.134 62.3489L333.209 58.6588L334.29 52.8254L354.214 56.5155ZM356.859 40.4938L336.426 59.2545L331.337 58.312L332.137 53.991L352.495 35.3653L357.632 36.3168L356.859 40.4938ZM355.064 35.841L353.983 41.6745L335.499 38.2511L336.579 32.4177L355.064 35.841Z" fill="white"/>
<path d="M354.214 56.5155L357.164 57.0618L357.711 54.1119L354.761 53.5656L354.214 56.5155ZM353.134 62.3489L352.588 65.2987L355.538 65.845L356.084 62.8952L353.134 62.3489ZM333.209 58.6588L330.259 58.1125L329.713 61.0623L332.663 61.6086L333.209 58.6588ZM334.29 52.8254L334.836 49.8755L331.886 49.3292L331.34 52.2791L334.29 52.8254ZM356.859 40.4938L358.888 42.7036L359.626 42.0257L359.809 41.0401L356.859 40.4938ZM336.426 59.2545L335.88 62.2044L337.352 62.4771L338.455 61.4644L336.426 59.2545ZM331.337 58.312L328.387 57.7657L327.841 60.7155L330.79 61.2619L331.337 58.312ZM332.137 53.991L330.112 51.7776L329.37 52.4562L329.187 53.4447L332.137 53.991ZM352.495 35.3653L353.041 32.4155L351.572 32.1434L350.47 33.1519L352.495 35.3653ZM357.632 36.3168L360.582 36.8631L361.129 33.9132L358.179 33.3669L357.632 36.3168ZM355.064 35.841L358.014 36.3874L358.56 33.4375L355.61 32.8912L355.064 35.841ZM353.983 41.6745L353.437 44.6243L356.387 45.1706L356.933 42.2208L353.983 41.6745ZM335.499 38.2511L332.549 37.7048L332.003 40.6547L334.953 41.201L335.499 38.2511ZM336.579 32.4177L337.126 29.4679L334.176 28.9216L333.629 31.8714L336.579 32.4177ZM351.265 55.9691L350.184 61.8026L356.084 62.8952L357.164 57.0618L351.265 55.9691ZM353.68 59.399L333.755 55.709L332.663 61.6086L352.588 65.2987L353.68 59.399ZM336.159 59.2051L337.239 53.3717L331.34 52.2791L330.259 58.1125L336.159 59.2051ZM333.743 55.7752L353.668 59.4653L354.761 53.5656L334.836 49.8755L333.743 55.7752ZM354.83 38.284L334.397 57.0447L338.455 61.4644L358.888 42.7036L354.83 38.284ZM336.972 56.3047L331.883 55.3622L330.79 61.2619L335.88 62.2044L336.972 56.3047ZM334.287 58.8583L335.087 54.5373L329.187 53.4447L328.387 57.7657L334.287 58.8583ZM334.162 56.2044L354.52 37.5787L350.47 33.1519L330.112 51.7776L334.162 56.2044ZM351.949 38.3152L357.086 39.2666L358.179 33.3669L353.041 32.4155L351.949 38.3152ZM354.683 35.7704L353.909 39.9475L359.809 41.0401L360.582 36.8631L354.683 35.7704ZM352.114 35.2947L351.034 41.1282L356.933 42.2208L358.014 36.3874L352.114 35.2947ZM354.53 38.7246L336.045 35.3013L334.953 41.201L353.437 44.6243L354.53 38.7246ZM338.449 38.7974L339.529 32.964L333.629 31.8714L332.549 37.7048L338.449 38.7974ZM336.033 35.3676L354.517 38.7909L355.61 32.8912L337.126 29.4679L336.033 35.3676Z" fill="#F99F0C"/>
<path d="M384.503 63.1654L383.197 68.9526L363.43 64.4933L364.736 58.7062L384.503 63.1654ZM387.766 47.2582L366.622 65.2133L361.573 64.0743L362.54 59.7875L383.604 41.9645L388.701 43.1142L387.766 47.2582ZM386.153 42.5394L384.847 48.3266L366.509 44.1897L367.815 38.4025L386.153 42.5394Z" fill="white"/>
<path d="M384.503 63.1654L387.429 63.8255L388.09 60.8991L385.163 60.2389L384.503 63.1654ZM383.197 68.9526L382.537 71.879L385.464 72.5392L386.124 69.6127L383.197 68.9526ZM363.43 64.4933L360.504 63.8332L359.844 66.7596L362.77 67.4198L363.43 64.4933ZM364.736 58.7062L365.396 55.7797L362.47 55.1195L361.81 58.046L364.736 58.7062ZM387.766 47.2582L389.708 49.5449L390.472 48.8961L390.693 47.9183L387.766 47.2582ZM366.622 65.2133L365.962 68.1397L367.422 68.4692L368.564 67.5L366.622 65.2133ZM361.573 64.0743L358.646 63.4141L357.986 66.3406L360.913 67.0007L361.573 64.0743ZM362.54 59.7875L360.602 57.4973L359.835 58.1466L359.613 59.1273L362.54 59.7875ZM383.604 41.9645L384.265 39.0381L382.807 38.7093L381.667 39.6743L383.604 41.9645ZM388.701 43.1142L391.627 43.7744L392.288 40.848L389.361 40.1878L388.701 43.1142ZM386.153 42.5394L389.079 43.1996L389.739 40.2731L386.813 39.6129L386.153 42.5394ZM384.847 48.3266L384.187 51.253L387.113 51.9132L387.774 48.9867L384.847 48.3266ZM366.509 44.1897L363.583 43.5295L362.922 46.456L365.849 47.1162L366.509 44.1897ZM367.815 38.4025L368.475 35.4761L365.548 34.8159L364.888 37.7423L367.815 38.4025ZM381.576 62.5052L380.271 68.2924L386.124 69.6127L387.429 63.8255L381.576 62.5052ZM383.858 66.0261L364.091 61.5669L362.77 67.4198L382.537 71.879L383.858 66.0261ZM366.357 65.1535L367.662 59.3663L361.81 58.046L360.504 63.8332L366.357 65.1535ZM364.076 61.6326L383.843 66.0918L385.163 60.2389L365.396 55.7797L364.076 61.6326ZM385.824 44.9714L364.68 62.9265L368.564 67.5L389.708 49.5449L385.824 44.9714ZM367.282 62.2868L362.233 61.1478L360.913 67.0007L365.962 68.1397L367.282 62.2868ZM364.499 64.7345L365.466 60.4477L359.613 59.1273L358.646 63.4141L364.499 64.7345ZM364.478 62.0777L385.542 44.2547L381.667 39.6743L360.602 57.4973L364.478 62.0777ZM382.944 44.891L388.041 46.0407L389.361 40.1878L384.265 39.0381L382.944 44.891ZM385.774 42.4541L384.84 46.598L390.693 47.9183L391.627 43.7744L385.774 42.4541ZM383.226 41.8792L381.921 47.6664L387.774 48.9867L389.079 43.1996L383.226 41.8792ZM385.507 45.4001L367.169 41.2633L365.849 47.1162L384.187 51.253L385.507 45.4001ZM369.436 44.8499L370.741 39.0627L364.888 37.7423L363.583 43.5295L369.436 44.8499ZM367.154 41.329L385.492 45.4658L386.813 39.6129L368.475 35.4761L367.154 41.329Z" fill="#F99F0C"/>
</svg>
